<mxfile host="app.diagrams.net" agent="Mozilla/5.0 (Windows NT 10.0; Win64; x64) AppleWebKit/537.36 (KHTML, like Gecko) Chrome/128.0.0.0 Safari/537.36" version="24.7.16">
  <diagram name="1 oldal" id="5PJmVs734dNN92LTAch9">
    <mxGraphModel dx="1050" dy="522" grid="1" gridSize="10" guides="1" tooltips="1" connect="1" arrows="1" fold="1" page="1" pageScale="1" pageWidth="827" pageHeight="1169" math="0" shadow="0">
      <root>
        <mxCell id="0" />
        <mxCell id="1" parent="0" />
        <mxCell id="7_m1twheLPetCkQeBZ0w-14" value="" style="rounded=0;whiteSpace=wrap;html=1;" vertex="1" parent="1">
          <mxGeometry x="60" y="185" width="740" height="145" as="geometry" />
        </mxCell>
        <mxCell id="7_m1twheLPetCkQeBZ0w-19" value="" style="edgeStyle=orthogonalEdgeStyle;rounded=0;orthogonalLoop=1;jettySize=auto;html=1;endArrow=none;endFill=0;" edge="1" parent="1" source="7_m1twheLPetCkQeBZ0w-1" target="7_m1twheLPetCkQeBZ0w-9">
          <mxGeometry relative="1" as="geometry" />
        </mxCell>
        <mxCell id="7_m1twheLPetCkQeBZ0w-1" value="Warehouse" style="rounded=0;whiteSpace=wrap;html=1;" vertex="1" parent="1">
          <mxGeometry x="200" y="110" width="100" height="60" as="geometry" />
        </mxCell>
        <mxCell id="7_m1twheLPetCkQeBZ0w-20" value="" style="edgeStyle=orthogonalEdgeStyle;rounded=0;orthogonalLoop=1;jettySize=auto;html=1;endArrow=none;endFill=0;" edge="1" parent="1" source="7_m1twheLPetCkQeBZ0w-3" target="7_m1twheLPetCkQeBZ0w-10">
          <mxGeometry relative="1" as="geometry" />
        </mxCell>
        <mxCell id="7_m1twheLPetCkQeBZ0w-3" value="AGC" style="rounded=0;whiteSpace=wrap;html=1;" vertex="1" parent="1">
          <mxGeometry x="320" y="110" width="100" height="60" as="geometry" />
        </mxCell>
        <mxCell id="7_m1twheLPetCkQeBZ0w-21" value="" style="edgeStyle=orthogonalEdgeStyle;rounded=0;orthogonalLoop=1;jettySize=auto;html=1;endArrow=none;endFill=0;" edge="1" parent="1" source="7_m1twheLPetCkQeBZ0w-4" target="7_m1twheLPetCkQeBZ0w-11">
          <mxGeometry relative="1" as="geometry" />
        </mxCell>
        <mxCell id="7_m1twheLPetCkQeBZ0w-4" value="Conveyor belt" style="rounded=0;whiteSpace=wrap;html=1;" vertex="1" parent="1">
          <mxGeometry x="440" y="110" width="100" height="60" as="geometry" />
        </mxCell>
        <mxCell id="7_m1twheLPetCkQeBZ0w-26" value="" style="edgeStyle=orthogonalEdgeStyle;rounded=0;orthogonalLoop=1;jettySize=auto;html=1;endArrow=none;endFill=0;" edge="1" parent="1" source="7_m1twheLPetCkQeBZ0w-5" target="7_m1twheLPetCkQeBZ0w-12">
          <mxGeometry relative="1" as="geometry" />
        </mxCell>
        <mxCell id="7_m1twheLPetCkQeBZ0w-5" value="Production cell 1" style="rounded=0;whiteSpace=wrap;html=1;" vertex="1" parent="1">
          <mxGeometry x="560" y="110" width="100" height="60" as="geometry" />
        </mxCell>
        <mxCell id="7_m1twheLPetCkQeBZ0w-23" value="" style="edgeStyle=orthogonalEdgeStyle;rounded=0;orthogonalLoop=1;jettySize=auto;html=1;endArrow=none;endFill=0;" edge="1" parent="1" source="7_m1twheLPetCkQeBZ0w-6" target="7_m1twheLPetCkQeBZ0w-13">
          <mxGeometry relative="1" as="geometry" />
        </mxCell>
        <mxCell id="7_m1twheLPetCkQeBZ0w-6" value="Production cell 2" style="rounded=0;whiteSpace=wrap;html=1;" vertex="1" parent="1">
          <mxGeometry x="680" y="110" width="100" height="60" as="geometry" />
        </mxCell>
        <mxCell id="7_m1twheLPetCkQeBZ0w-16" style="edgeStyle=orthogonalEdgeStyle;rounded=0;orthogonalLoop=1;jettySize=auto;html=1;exitX=0.5;exitY=1;exitDx=0;exitDy=0;entryX=0.5;entryY=0;entryDx=0;entryDy=0;endArrow=none;endFill=0;" edge="1" parent="1" source="7_m1twheLPetCkQeBZ0w-7" target="7_m1twheLPetCkQeBZ0w-8">
          <mxGeometry relative="1" as="geometry" />
        </mxCell>
        <mxCell id="7_m1twheLPetCkQeBZ0w-7" value="HMI" style="rounded=0;whiteSpace=wrap;html=1;" vertex="1" parent="1">
          <mxGeometry x="80" y="110" width="100" height="60" as="geometry" />
        </mxCell>
        <mxCell id="7_m1twheLPetCkQeBZ0w-8" value="" style="rounded=0;whiteSpace=wrap;html=1;" vertex="1" parent="1">
          <mxGeometry x="80" y="210" width="100" height="60" as="geometry" />
        </mxCell>
        <mxCell id="7_m1twheLPetCkQeBZ0w-40" value="" style="edgeStyle=orthogonalEdgeStyle;rounded=0;orthogonalLoop=1;jettySize=auto;html=1;entryX=0.243;entryY=0.333;entryDx=0;entryDy=0;entryPerimeter=0;" edge="1" parent="1" source="7_m1twheLPetCkQeBZ0w-9" target="7_m1twheLPetCkQeBZ0w-27">
          <mxGeometry relative="1" as="geometry" />
        </mxCell>
        <mxCell id="7_m1twheLPetCkQeBZ0w-9" value="" style="rounded=0;whiteSpace=wrap;html=1;" vertex="1" parent="1">
          <mxGeometry x="200" y="210" width="100" height="60" as="geometry" />
        </mxCell>
        <mxCell id="7_m1twheLPetCkQeBZ0w-10" value="" style="rounded=0;whiteSpace=wrap;html=1;" vertex="1" parent="1">
          <mxGeometry x="320" y="210" width="100" height="60" as="geometry" />
        </mxCell>
        <mxCell id="7_m1twheLPetCkQeBZ0w-11" value="" style="rounded=0;whiteSpace=wrap;html=1;" vertex="1" parent="1">
          <mxGeometry x="440" y="210" width="100" height="60" as="geometry" />
        </mxCell>
        <mxCell id="7_m1twheLPetCkQeBZ0w-38" style="edgeStyle=orthogonalEdgeStyle;rounded=0;orthogonalLoop=1;jettySize=auto;html=1;exitX=0.5;exitY=1;exitDx=0;exitDy=0;endArrow=none;endFill=0;" edge="1" parent="1" source="7_m1twheLPetCkQeBZ0w-12">
          <mxGeometry relative="1" as="geometry">
            <mxPoint x="610" y="340" as="targetPoint" />
          </mxGeometry>
        </mxCell>
        <mxCell id="7_m1twheLPetCkQeBZ0w-12" value="" style="rounded=0;whiteSpace=wrap;html=1;" vertex="1" parent="1">
          <mxGeometry x="560" y="210" width="100" height="60" as="geometry" />
        </mxCell>
        <mxCell id="7_m1twheLPetCkQeBZ0w-13" value="" style="rounded=0;whiteSpace=wrap;html=1;" vertex="1" parent="1">
          <mxGeometry x="680" y="210" width="100" height="60" as="geometry" />
        </mxCell>
        <mxCell id="7_m1twheLPetCkQeBZ0w-15" value="Service level" style="text;html=1;align=center;verticalAlign=middle;whiteSpace=wrap;rounded=0;" vertex="1" parent="1">
          <mxGeometry x="390" y="290" width="80" height="30" as="geometry" />
        </mxCell>
        <mxCell id="7_m1twheLPetCkQeBZ0w-27" value="Message bus" style="rounded=0;whiteSpace=wrap;html=1;" vertex="1" parent="1">
          <mxGeometry x="80" y="340" width="700" height="30" as="geometry" />
        </mxCell>
        <mxCell id="7_m1twheLPetCkQeBZ0w-30" style="edgeStyle=orthogonalEdgeStyle;rounded=0;orthogonalLoop=1;jettySize=auto;html=1;exitX=0.5;exitY=1;exitDx=0;exitDy=0;entryX=0.071;entryY=-0.027;entryDx=0;entryDy=0;entryPerimeter=0;endArrow=none;endFill=0;" edge="1" parent="1" source="7_m1twheLPetCkQeBZ0w-8" target="7_m1twheLPetCkQeBZ0w-27">
          <mxGeometry relative="1" as="geometry" />
        </mxCell>
        <mxCell id="7_m1twheLPetCkQeBZ0w-34" style="edgeStyle=orthogonalEdgeStyle;rounded=0;orthogonalLoop=1;jettySize=auto;html=1;exitX=0.5;exitY=1;exitDx=0;exitDy=0;entryX=0.929;entryY=-0.107;entryDx=0;entryDy=0;entryPerimeter=0;endArrow=none;endFill=0;" edge="1" parent="1" source="7_m1twheLPetCkQeBZ0w-13" target="7_m1twheLPetCkQeBZ0w-27">
          <mxGeometry relative="1" as="geometry">
            <Array as="points">
              <mxPoint x="730" y="340" />
              <mxPoint x="730" y="340" />
            </Array>
          </mxGeometry>
        </mxCell>
        <mxCell id="7_m1twheLPetCkQeBZ0w-35" style="edgeStyle=orthogonalEdgeStyle;rounded=0;orthogonalLoop=1;jettySize=auto;html=1;exitX=0.5;exitY=1;exitDx=0;exitDy=0;endArrow=none;endFill=0;" edge="1" parent="1" source="7_m1twheLPetCkQeBZ0w-11">
          <mxGeometry relative="1" as="geometry">
            <mxPoint x="490" y="340" as="targetPoint" />
          </mxGeometry>
        </mxCell>
        <mxCell id="7_m1twheLPetCkQeBZ0w-36" style="edgeStyle=orthogonalEdgeStyle;rounded=0;orthogonalLoop=1;jettySize=auto;html=1;exitX=0.5;exitY=1;exitDx=0;exitDy=0;endArrow=none;endFill=0;" edge="1" parent="1" source="7_m1twheLPetCkQeBZ0w-10">
          <mxGeometry relative="1" as="geometry">
            <mxPoint x="370" y="340" as="targetPoint" />
          </mxGeometry>
        </mxCell>
      </root>
    </mxGraphModel>
  </diagram>
</mxfile>
